<svg width="64" height="64" viewBox="0 0 64 64" fill="none" xmlns="http://www.w3.org/2000/svg">
<path d="M25.6267 42.96C25.6267 37.4134 28.24 32.5067 32.2667 29.3334H13.3333L17.3333 17.3334H46.6667L49.92 27.0934C52.16 28.08 54.1333 29.52 55.76 31.3067L50.4533 16C49.92 14.4534 48.4267 13.3334 46.6667 13.3334H17.3333C15.5733 13.3334 14.08 14.4534 13.5467 16L8 32V53.3334C8 54.8 9.2 56 10.6667 56H13.3333C14.8 56 16 54.8 16 53.3334V50.6667H27.44C26.2933 48.3467 25.6267 45.7334 25.6267 42.96ZM17.3333 42.6667C15.12 42.6667 13.3333 40.88 13.3333 38.6667C13.3333 36.4534 15.12 34.6667 17.3333 34.6667C19.5467 34.6667 21.3333 36.4534 21.3333 38.6667C21.3333 40.88 19.5467 42.6667 17.3333 42.6667ZM42.96 30.96C49.6267 30.96 54.96 36.2934 54.96 42.96C54.96 45.3334 54.2933 47.52 53.12 49.3334L61.3333 57.6267L57.6267 61.3334L49.3333 53.1467C47.4667 54.2934 45.3333 54.96 42.96 54.96C36.2933 54.96 30.96 49.6267 30.96 42.96C30.96 36.2934 36.2933 30.96 42.96 30.96ZM42.96 36.2934C41.6415 36.2934 40.3525 36.6844 39.2562 37.4169C38.1599 38.1495 37.3054 39.1906 36.8008 40.4088C36.2962 41.627 36.1642 42.9674 36.4214 44.2606C36.6787 45.5538 37.3136 46.7417 38.246 47.6741C39.1783 48.6064 40.3662 49.2414 41.6594 49.4986C42.9526 49.7558 44.2931 49.6238 45.5112 49.1192C46.7294 48.6147 47.7706 47.7602 48.5031 46.6638C49.2357 45.5675 49.6267 44.2786 49.6267 42.96C49.6267 39.2534 46.6667 36.2934 42.96 36.2934Z" fill="black"/>
</svg>
