<svg width="64" height="64" viewBox="0 0 64 64" fill="none" xmlns="http://www.w3.org/2000/svg">
<path d="M26.6667 45.3334L13.3333 32L17.0933 28.2134L26.6667 37.7867L46.9067 17.5467L50.6667 21.3334M32 5.33337C28.4981 5.33337 25.0305 6.02313 21.7951 7.36325C18.5598 8.70338 15.6201 10.6676 13.1438 13.1439C8.14286 18.1448 5.33334 24.9276 5.33334 32C5.33334 39.0725 8.14286 45.8553 13.1438 50.8562C15.6201 53.3325 18.5598 55.2967 21.7951 56.6368C25.0305 57.977 28.4981 58.6667 32 58.6667C39.0725 58.6667 45.8552 55.8572 50.8562 50.8562C55.8572 45.8553 58.6667 39.0725 58.6667 32C58.6667 28.4981 57.9769 25.0305 56.6368 21.7951C55.2967 18.5598 53.3324 15.6201 50.8562 13.1439C48.38 10.6676 45.4403 8.70338 42.2049 7.36325C38.9696 6.02313 35.5019 5.33337 32 5.33337Z" fill="black"/>
</svg>
