<svg width="64" height="64" viewBox="0 0 64 64" fill="none" xmlns="http://www.w3.org/2000/svg">
<path d="M10.6666 16H5.33331V53.3334C5.33331 54.7479 5.89522 56.1044 6.89541 57.1046C7.8956 58.1048 9.25216 58.6667 10.6666 58.6667H48V53.3334H10.6666V16ZM53.3333 5.33337H21.3333C19.9188 5.33337 18.5623 5.89528 17.5621 6.89547C16.5619 7.89567 16 9.25222 16 10.6667V42.6667C16 44.0812 16.5619 45.4377 17.5621 46.4379C18.5623 47.4381 19.9188 48 21.3333 48H53.3333C54.7478 48 56.1044 47.4381 57.1045 46.4379C58.1047 45.4377 58.6666 44.0812 58.6666 42.6667V10.6667C58.6666 9.25222 58.1047 7.89567 57.1045 6.89547C56.1044 5.89528 54.7478 5.33337 53.3333 5.33337ZM32 38.6667V14.6667L48 26.6667L32 38.6667Z" fill="black"/>
</svg>
