<svg width="64" height="64" viewBox="0 0 64 64" fill="none" xmlns="http://www.w3.org/2000/svg">
<path d="M5.33332 14.0533L8.74666 10.6666L53.3333 55.2533L49.9467 58.6666L41.7333 50.4533C38.6667 51.4666 35.4133 52 32 52C18.6667 52 7.27999 43.7066 2.66666 32C4.50666 27.3066 7.43999 23.1733 11.1733 19.8933L5.33332 14.0533ZM32 24C34.1217 24 36.1566 24.8428 37.6568 26.3431C39.1571 27.8434 40 29.8782 40 32C40.0013 32.9081 39.848 33.8099 39.5467 34.6666L29.3333 24.4533C30.19 24.1519 31.0918 23.9986 32 24ZM32 12C45.3333 12 56.72 20.2933 61.3333 32C59.1569 37.5285 55.4585 42.3272 50.6667 45.84L46.88 42.0266C50.5677 39.4756 53.5419 36.0241 55.52 32C53.3642 27.5998 50.0171 23.8927 45.8594 21.3C41.7016 18.7073 36.8999 17.333 32 17.3333C29.0933 17.3333 26.24 17.8133 23.5733 18.6666L19.4667 14.5866C23.3067 12.9333 27.5467 12 32 12ZM8.47999 32C10.6358 36.4001 13.9828 40.1072 18.1406 42.6999C22.2984 45.2927 27.1001 46.6669 32 46.6666C33.84 46.6666 35.6533 46.48 37.3333 46.1066L31.2533 40C29.3978 39.8011 27.6662 38.973 26.3466 37.6534C25.027 36.3338 24.1989 34.6022 24 32.7466L14.9333 23.6533C12.2933 25.92 10.08 28.7466 8.47999 32Z" fill="black"/>
</svg>
