<svg width="64" height="64" viewBox="0 0 64 64" fill="none" xmlns="http://www.w3.org/2000/svg">
<path d="M32 24C34.1218 24 36.1566 24.8429 37.6569 26.3431C39.1572 27.8434 40 29.8783 40 32C40 34.1217 39.1572 36.1566 37.6569 37.6569C36.1566 39.1571 34.1218 40 32 40C29.8783 40 27.8435 39.1571 26.3432 37.6569C24.8429 36.1566 24 34.1217 24 32C24 29.8783 24.8429 27.8434 26.3432 26.3431C27.8435 24.8429 29.8783 24 32 24ZM32 12C45.3334 12 56.72 20.2933 61.3334 32C56.72 43.7067 45.3334 52 32 52C18.6667 52 7.28002 43.7067 2.66669 32C7.28002 20.2933 18.6667 12 32 12ZM8.48002 32C10.6354 36.4008 13.9822 40.1087 18.14 42.702C22.2978 45.2954 27.0997 46.6702 32 46.6702C36.9003 46.6702 41.7023 45.2954 45.8601 42.702C50.0179 40.1087 53.3647 36.4008 55.52 32C53.3647 27.5992 50.0179 23.8913 45.8601 21.298C41.7023 18.7046 36.9003 17.3298 32 17.3298C27.0997 17.3298 22.2978 18.7046 18.14 21.298C13.9822 23.8913 10.6354 27.5992 8.48002 32Z" fill="black"/>
</svg>
